<?xml version="1.0" encoding="UTF-8" standalone="no"?>
<svg width="150px" height="40px" viewBox="0 0 150 40" version="1.1" xmlns="http://www.w3.org/2000/svg" xmlns:xlink="http://www.w3.org/1999/xlink">
    <!-- Generator: Sketch 39.1 (31720) - http://www.bohemiancoding.com/sketch -->
    <title>Android</title>
    <desc>Created with Sketch.</desc>
    <defs></defs>
    <g id="PC头图" stroke="none" stroke-width="1" fill="none" fill-rule="evenodd">
        <g id="Android" fill="#FFFFFF">
            <path d="M47.8046875,26 L48.8046875,22.9453125 L52.6328125,22.9453125 L53.625,26 L55.3515625,26 L51.6328125,15.3359375 L49.890625,15.3359375 L46.171875,26 L47.8046875,26 Z M50.75,17.0859375 L52.25,21.6953125 L49.1875,21.6953125 L50.6953125,17.0859375 L50.75,17.0859375 Z M56.7024625,26 L58.272775,26 L58.272775,21.046875 C58.272775,19.9453125 58.8743375,19.0234375 60.1712125,19.0234375 C61.2649625,19.0234375 62.054025,19.6640625 62.054025,21.0078125 L62.054025,26 L63.6243375,26 L63.6243375,20.7109375 C63.6243375,18.703125 62.397775,17.6328125 60.710275,17.6328125 C59.3587125,17.6328125 58.6009,18.3515625 58.3118375,18.890625 L58.25715,18.890625 L58.25715,17.765625 L56.7024625,17.765625 L56.7024625,26 Z M68.7408625,17.6328125 C66.7018,17.6328125 65.498675,19.2265625 65.498675,21.5078125 L65.498675,22.2421875 C65.498675,24.5703125 66.6393,26.1171875 68.7408625,26.1171875 C69.8502375,26.1171875 70.717425,25.59375 71.154925,24.75 L71.2018,24.75 L71.2018,26 L72.73305,26 L72.73305,14.7734375 L71.154925,14.7734375 L71.154925,18.921875 L71.1002375,18.921875 C70.7018,18.1796875 69.842425,17.6328125 68.7408625,17.6328125 L68.7408625,17.6328125 Z M69.0846125,18.9609375 C70.373675,18.9609375 71.17055,19.9765625 71.17055,21.5625 L71.17055,22.203125 C71.17055,23.8671875 70.3814875,24.7890625 69.1002375,24.7890625 C67.936175,24.7890625 67.1002375,23.9296875 67.1002375,22.1953125 L67.1002375,21.5625 C67.1002375,19.8203125 67.936175,18.9609375 69.0846125,18.9609375 L69.0846125,18.9609375 Z M75.0761375,26 L76.6698875,26 L76.6698875,21.03125 C76.6698875,19.921875 77.130825,19.046875 78.5527,19.046875 C78.818325,19.046875 79.1073875,19.0625 79.255825,19.09375 L79.255825,17.6796875 C79.0917625,17.65625 78.9042625,17.640625 78.7011375,17.640625 C77.5448875,17.640625 76.9277,18.3125 76.70895,18.8125 L76.6542625,18.8125 L76.6542625,17.765625 L75.0761375,17.765625 L75.0761375,26 Z M84.012975,17.625 C81.6614125,17.625 80.387975,19.296875 80.387975,21.5234375 L80.387975,22.2109375 C80.387975,24.5 81.6614125,26.140625 84.012975,26.140625 C86.356725,26.140625 87.6145375,24.5 87.6145375,22.2109375 L87.6145375,21.515625 C87.6145375,19.2890625 86.3489125,17.625 84.012975,17.625 L84.012975,17.625 Z M84.0051625,18.921875 C85.3411,18.921875 86.0286,19.9765625 86.0286,21.5546875 L86.0286,22.1875 C86.0286,23.75 85.3489125,24.828125 84.0051625,24.828125 C82.669225,24.828125 81.9739125,23.7421875 81.9739125,22.1875 L81.9739125,21.5546875 C81.9739125,19.984375 82.669225,18.921875 84.0051625,18.921875 L84.0051625,18.921875 Z M89.6841875,26 L91.2623125,26 L91.2623125,17.765625 L89.6841875,17.765625 L89.6841875,26 Z M89.5123125,15.7578125 C89.5123125,16.2890625 89.942,16.6875 90.47325,16.6875 C91.0045,16.6875 91.4341875,16.2890625 91.4341875,15.7578125 C91.4341875,15.2265625 91.0045,14.828125 90.47325,14.828125 C89.942,14.828125 89.5123125,15.2265625 89.5123125,15.7578125 L89.5123125,15.7578125 Z M96.57415,17.6328125 C94.5350875,17.6328125 93.3319625,19.2265625 93.3319625,21.5078125 L93.3319625,22.2421875 C93.3319625,24.5703125 94.4725875,26.1171875 96.57415,26.1171875 C97.683525,26.1171875 98.5507125,25.59375 98.9882125,24.75 L99.0350875,24.75 L99.0350875,26 L100.566338,26 L100.566338,14.7734375 L98.9882125,14.7734375 L98.9882125,18.921875 L98.933525,18.921875 C98.5350875,18.1796875 97.6757125,17.6328125 96.57415,17.6328125 L96.57415,17.6328125 Z M96.9179,18.9609375 C98.2069625,18.9609375 99.0038375,19.9765625 99.0038375,21.5625 L99.0038375,22.203125 C99.0038375,23.8671875 98.214775,24.7890625 96.933525,24.7890625 C95.7694625,24.7890625 94.933525,23.9296875 94.933525,22.1953125 L94.933525,21.5625 C94.933525,19.8203125 95.7694625,18.9609375 96.9179,18.9609375 L96.9179,18.9609375 Z M105.7647,15.304 L118.2107,15.304 L118.2107,16.298 L112.1347,16.298 L112.1347,18.412 C113.870709,19.2800043 115.634691,20.2879943 117.4267,21.436 L116.8247,22.332 C114.986024,21.1093272 113.422706,20.1573367 112.1347,19.476 L112.1347,27.428 L111.1127,27.428 L111.1127,16.298 L105.7647,16.298 L105.7647,15.304 Z M120.5963,15.696 L123.3263,15.696 L123.3263,14.52 L124.3063,14.52 L124.3063,15.696 L126.8403,15.696 L126.8403,16.62 L124.3063,16.62 L124.3063,17.908 L127.6663,17.908 C127.6103,16.8533281 127.5823,15.7146728 127.5823,14.492 L128.5623,14.492 C128.5623,15.7613397 128.5903,16.899995 128.6463,17.908 L132.1743,17.908 L132.1743,18.818 L128.7023,18.818 C128.7863,20.1060064 128.902966,21.1233296 129.0523,21.87 C129.126967,22.2340018 129.210966,22.6166647 129.3043,23.018 C129.808303,22.0193283 130.214298,20.8526733 130.5223,19.518 L131.4183,19.924 C130.970298,21.6786754 130.396304,23.1439941 129.6963,24.32 C129.789634,24.6000014 129.910966,24.8846652 130.0603,25.174 C130.424302,25.8646701 130.718299,26.21 130.9423,26.21 C131.166301,26.1913332 131.362299,25.444674 131.5303,23.97 L132.3983,24.432 C132.090298,26.298676 131.64697,27.232 131.0683,27.232 C130.592298,27.232 130.078969,26.8073376 129.5283,25.958 C129.360299,25.6966654 129.224967,25.4446679 129.1223,25.202 C128.40363,26.135338 127.577638,26.8586641 126.6443,27.372 L126.0983,26.56 C127.115638,25.9906638 127.978963,25.1740053 128.6883,24.11 C128.473632,23.44733 128.296301,22.7706701 128.1563,22.08 C127.941632,21.0906617 127.796967,20.0033393 127.7223,18.818 L119.8683,18.818 L119.8683,17.908 L123.3263,17.908 L123.3263,16.62 L120.5963,16.62 L120.5963,15.696 Z M130.0043,14.674 C130.72297,15.4766707 131.264298,16.1626638 131.6283,16.732 L130.8723,17.264 C130.480298,16.6293302 129.934304,15.9293372 129.2343,15.164 L130.0043,14.674 Z M126.8403,25.44 C126.728299,25.4493334 126.373636,25.491333 125.7763,25.566 L124.6563,25.706 L124.6563,27.358 L123.6623,27.358 L123.6623,25.804 C122.868963,25.878667 121.804973,25.9673328 120.4703,26.07 L120.3443,25.132 C121.305638,25.0759997 122.411627,24.9966672 123.6623,24.894 L123.6623,23.648 L120.9323,23.648 L120.7363,22.822 C121.137635,22.3366642 121.501632,21.7533367 121.8283,21.072 L120.2883,21.072 L120.2883,20.176 L122.2203,20.176 C122.313634,19.9519989 122.444299,19.5973358 122.6123,19.112 L123.5783,19.294 C123.466299,19.6020015 123.354301,19.8959986 123.2423,20.176 L126.9103,20.176 L126.9103,21.072 L122.8503,21.072 C122.551632,21.6973365 122.220302,22.2713307 121.8563,22.794 L123.6623,22.794 L123.6623,21.702 L124.6563,21.702 L124.6563,22.794 L126.7843,22.794 L126.7843,23.648 L124.6563,23.648 L124.6563,24.796 C125.430971,24.7119996 126.158963,24.6280004 126.8403,24.544 L126.8403,25.44 Z" id="Android-下载"></path>
            <path d="M18.217,17 C17.545,17 17,17.553 17,18.236 L17,23.065 C17,23.748 17.545,24.301 18.217,24.301 C18.889,24.301 19.434,23.748 19.434,23.065 L19.434,18.236 C19.434,17.553 18.889,17 18.217,17 M32.894,17 C32.222,17 31.678,17.553 31.678,18.236 L31.678,23.065 C31.678,23.748 32.222,24.301 32.894,24.301 C33.566,24.301 34.111,23.748 34.111,23.065 L34.111,18.236 C34.111,17.553 33.566,17 32.894,17" id="Fill-13"></path>
            <path d="M20,17 L20,25.824 C20,26.348 20.425,26.772 20.949,26.772 L22.033,26.772 L22.033,29.459 C22.033,30.142 22.578,30.695 23.25,30.695 C23.922,30.695 24.467,30.142 24.467,29.459 L24.467,26.772 L26.361,26.772 L26.361,29.459 C26.361,30.142 26.906,30.695 27.578,30.695 C28.25,30.695 28.794,30.142 28.794,29.459 L28.794,26.772 L29.878,26.772 C30.403,26.772 30.827,26.348 30.827,25.824 L30.827,17 L20,17 Z" id="Fill-15"></path>
            <path d="M27.773,14.0208758 C27.442,14.0208758 27.174,13.7528758 27.174,13.4218758 C27.174,13.0908758 27.442,12.8228758 27.773,12.8228758 C28.104,12.8228758 28.372,13.0908758 28.372,13.4218758 C28.372,13.7528758 28.104,14.0208758 27.773,14.0208758 M23.13,14.0208758 C22.799,14.0208758 22.531,13.7528758 22.531,13.4218758 C22.531,13.0908758 22.799,12.8228758 23.13,12.8228758 C23.461,12.8228758 23.729,13.0908758 23.729,13.4218758 C23.729,13.7528758 23.461,14.0208758 23.13,14.0208758 M27.981,11.7328758 L28.981,10.2808758 C29.04,10.1948758 29.025,10.0808758 28.948,10.0278758 C28.87,9.97387575 28.759,10.0008758 28.7,10.0868758 L27.661,11.5948758 C26.976,11.3258758 26.215,11.1748758 25.414,11.1748758 C24.613,11.1748758 23.852,11.3258758 23.167,11.5948758 L22.129,10.0868758 C22.069,10.0008758 21.958,9.97387575 21.88,10.0278758 C21.803,10.0808758 21.788,10.1948758 21.847,10.2808758 L22.848,11.7328758 C21.258,12.4728758 20.142,13.8778758 20,15.5188758 L30.828,15.5188758 C30.686,13.8778758 29.571,12.4728758 27.981,11.7328758" id="Fill-17"></path>
        </g>
    </g>
</svg>